<svg viewBox="0 0 223 118" xmlns="http://www.w3.org/2000/svg">
    <path d="M69.9316 10.3379L59.3496 -0.285156L0 59.0645L59.3496 118.414L69.9316 107.832L21.2051 59.0645L69.9316 10.3379Z"/>
    <path d="M153 10.3379L163.582 -0.285156L222.932 59.0645L163.582 118.414L153 107.832L201.727 59.0645L153 10.3379Z"/>
    <path d="M122.465 55.7931C122.465 56.1779 122.707 56.3556 122.978 56.3556C123.22 56.3556 123.491 56.1779 123.491 55.7931V48.569L131.574 37.9697C132.117 37.3775 131.363 36.7854 130.82 37.3775L122.978 47.74L115.107 37.3775C114.564 36.7854 113.84 37.3775 114.353 37.9697L122.466 48.569L122.465 55.7931Z"/>
    <path d="M143.516 56.5924C148.764 56.5924 153.288 52.2106 153.107 46.4964C152.987 41.9074 149.73 37.8512 144.964 37.111C143.909 36.963 142.762 36.963 141.707 37.111C136.972 37.8512 134.077 41.9074 133.926 46.4964C133.775 52.2106 138.299 56.5924 143.516 56.5924ZM141.858 38.0584C142.823 37.9104 143.848 37.9104 144.813 38.0584C149.096 38.7098 151.991 42.3811 152.112 46.526C152.263 51.6185 148.222 55.6746 143.516 55.6746C138.842 55.6746 134.8 51.6185 134.951 46.526C135.072 42.3811 137.606 38.7098 141.858 38.0584Z"/>
    <path d="M173.947 47.9472C173.947 57.9544 158.505 57.9544 158.505 47.9472C158.505 44.3944 158.505 41.1968 158.505 37.644C158.505 36.9926 157.54 36.9926 157.54 37.6144C157.54 41.1968 157.54 44.3944 157.54 47.9472C157.54 59.2571 174.942 59.2571 174.942 47.9472C174.942 44.3944 174.942 41.1968 174.942 37.6144C174.942 36.9926 173.947 36.9926 173.947 37.644C173.947 41.1968 173.947 44.3944 173.947 47.9472Z"/>
    <path d="M130.553 75.1991C130.553 72.4709 128.64 71.0041 126.13 70.5054C128.043 69.9187 129.119 68.5399 129.119 66.6624C129.119 62.7022 124.487 61.8514 121.947 61.8514H114.715C114.416 61.8514 114.177 62.0861 114.177 62.3795C114.177 68.2465 114.177 74.1137 114.177 79.9808C114.177 80.2741 114.416 80.5088 114.715 80.5088C117.465 80.5088 120.214 80.5088 122.963 80.5088C126.638 80.5088 130.553 79.3647 130.553 75.1991ZM121.947 62.7315C123.979 62.7608 128.073 63.4943 128.073 66.6624C128.073 69.3906 125.413 70.2414 122.336 70.2414H115.194V62.7315H121.947ZM123.919 71.1801C127.027 71.1801 129.507 72.3242 129.507 75.1991C129.507 78.8073 126.101 79.6287 122.963 79.6287C120.363 79.6287 117.763 79.6287 115.194 79.6287V71.1801H123.919Z"/>
    <path d="M143.702 80.8608C148.901 80.8608 153.383 76.5191 153.204 70.8574C153.085 66.3104 149.858 62.2915 145.136 61.5581C144.09 61.4114 142.955 61.4114 141.908 61.5581C137.217 62.2915 134.348 66.3104 134.199 70.8574C134.049 76.5191 138.532 80.8608 143.702 80.8608ZM142.058 62.4968C143.014 62.3502 144.03 62.3502 144.987 62.4968C149.23 63.1422 152.099 66.7798 152.218 70.8867C152.368 75.9325 148.363 79.9514 143.702 79.9514C139.07 79.9514 135.065 75.9325 135.215 70.8867C135.334 66.7798 137.845 63.1422 142.058 62.4968Z"/>
    <path d="M173.853 72.2948C173.853 82.2102 158.553 82.2102 158.553 72.2948C158.553 68.7746 158.553 65.6064 158.553 62.0861C158.553 61.4407 157.597 61.4407 157.597 62.0568C157.597 65.6064 157.597 68.7746 157.597 72.2948C157.597 83.501 174.839 83.501 174.839 72.2948C174.839 68.7746 174.839 65.6064 174.839 62.0568C174.839 61.4407 173.853 61.4407 173.853 62.0861C173.853 65.6064 173.853 68.7746 173.853 72.2948Z"/>
    <path d="M66.4648 80.8608H78.5338V62.8143L93.3201 37.6277L92.6008 37.2354L78.0542 62.0297L62.0689 37H50L66.4648 62.8143V80.8608Z"/>
    <path d="M101.663 80.8608V37H102.172V80.8608H101.663Z"/>
</svg>
